Simulation
nRows=44
nColumns=15
endheader
time  TH_x TH_y TH_z SC_y  SC_z  SC_x  AC_y  AC_z  AC_x  GH_y  GH_z  GH_yy  EL_x  PS_y
0.0  0.000000  0.000000  0.000000  -40.97484877243665  6.293857566463187  5.290427962726946  45.004311437309255  -3.5755963445469434  -1.061233755665817  16.000960394582524  5.084205016373122  8.509265127025952  22.602285844156185  120.000000
0.05745  0.000000  0.000000  0.000000  -40.64175428951718  5.179579144794328  3.6285212101744038  44.98600168795147  -2.5257468694321576  -0.7865144619203227  5.737106321832017  7.357237134074322  18.36697545862249  22.037799577384604  120.000000
0.1149  0.000000  0.000000  0.000000  -40.32822678705943  3.9177281771300594  1.9350564165391717  45.0347364047698  -1.6947375791858679  -0.495402041398445  0.8990316379150469  9.583903836962646  22.775998612550385  21.64349886936342  120.000000
0.17235  0.000000  0.000000  0.000000  -40.07526394567581  2.642087822132836  0.2711448637824166  45.14665443712724  -1.0329102915629342  -0.15155047150196246  -1.6458132298987371  11.735338830098955  24.81468195604129  21.50103903314846  120.000000
0.2298  0.000000  0.000000  0.000000  -39.909728706018214  1.4517408711464712  -1.2943455193808775  45.326502657319175  -0.45698248054650553  0.27320832189704886  -3.0550452595230726  13.880124088181233  25.596440350037813  21.618827295185756  120.000000
0.28725  0.000000  0.000000  0.000000  -39.847706080240414  0.4408671815562406  -2.7117436393063366  45.574235161115936  0.11349176082455766  0.7946418724680245  -3.868330514627152  16.10993209209625  25.626790002328736  21.94071902424128  120.000000
0.3447  0.000000  0.000000  0.000000  -39.91494731160253  -0.32336480910491416  -3.949595456299462  45.88248581945063  0.7383455808845847  1.4080363671445717  -4.360932391048105  18.515679319903366  25.156658022233348  22.36863399909373  120.000000
0.40215  0.000000  0.000000  0.000000  -40.15239851640163  -0.8076793182392551  -4.981506204149572  46.240520102556  1.435959964347144  2.091394435022962  -4.669918606621479  21.166743754327538  24.31148040011276  22.79138772343411  120.000000
0.4596  0.000000  0.000000  0.000000  -40.602629226688435  -1.0010535376963383  -5.78485373691025  46.64155223293192  2.1817005256940054  2.82104124171574  -4.863741429739559  24.092545486479533  23.165486598252883  23.114681639715073  120.000000
0.51705  0.000000  0.000000  0.000000  -41.29139977397477  -0.9049816121969072  -6.363838320127033  47.0871668982054  2.9432348632153227  3.600142351879546  -4.974273658826187  27.27410859783912  21.77139750460093  23.27836374134415  120.000000
0.5745  0.000000  0.000000  0.000000  -42.21465146693948  -0.5293828692089632  -6.736773101429106  47.587913452793416  3.703085931953516  4.454346270093486  -5.012558570368038  30.645760813022807  20.169763313280452  23.26410496391793  120.000000
0.63195  0.000000  0.000000  0.000000  -43.336418239982564  0.11333221127328305  -6.897956527236134  48.161469651590686  4.46007395185354  5.401855693639669  -4.982976536963495  34.099893041955106  18.38963536809619  23.085780717989195  120.000000
0.6894  0.000000  0.000000  0.000000  -44.585683144650524  1.0054054576204823  -6.813864139220755  48.822007721272  5.241770506591246  6.444249872681507  -4.905966814121751  37.48964034742933  16.45977316209808  22.77228363960809  120.000000
0.74685  0.000000  0.000000  0.000000  -45.86991778685283  2.1120812427592033  -6.429958531920788  49.56640635334651  6.095702435182116  7.566318793511518  -4.82102652352602  40.637887397304134  14.40962994942331  22.356799744855365  120.000000
0.8043  0.000000  0.000000  0.000000  -47.08975973686515  3.378991705911303  -5.690971772362708  50.3749658641388  7.068269064156824  8.731493123421481  -4.770168683439671  43.369257483440634  12.264321187630744  21.872962379995094  120.000000
0.86175  0.000000  0.000000  0.000000  -48.17219839825774  4.7476590231327  -4.556835386836738  51.212475700708595  8.179527795564793  9.891501244025216  -4.775261922121765  45.56142074827835  10.042301456288786  21.35396008291184  120.000000
0.9192  0.000000  0.000000  0.000000  -49.099313992341216  6.1628208221814464  -3.0128993100007286  52.028485192839256  9.41103928622164  11.007575427241036  -4.829767897842564  47.18035758523542  7.770905834016042  20.83238610551483  120.000000
0.97665  0.000000  0.000000  0.000000  -49.90042378001  7.576234755333102  -1.073915799928315  52.76900795554871  10.710502045981166  12.057705689934961  -4.908980138126161  48.27865993512894  5.506913875738005  20.33297842723669  120.000000
1.0341  0.000000  0.000000  0.000000  -50.62899900542145  8.945423089527377  1.2202848710982166  53.38857814707557  12.00942128524678  13.032280193862611  -4.986451988745642  48.96469694119394  3.349543371034205  19.86979466784674  120.000000
1.09155  0.000000  0.000000  0.000000  -51.33524722606832  10.220347341988361  3.807410741259716  53.8570657908101  13.236706022527553  13.930134710146136  -5.048881705614  49.36578059017613  1.4305810468459588  19.443189469996614  120.000000
1.149  0.000000  0.000000  0.000000  -52.04759052283424  11.34599403480873  6.6006590541213495  54.16846966276435  14.329806255780646  14.747219773423387  -5.095297734486436  49.59879779600161  -0.11945390409977526  19.046723076500378  120.000000
1.20645  0.000000  0.000000  0.000000  -52.76543990093647  12.270954061774926  9.488044706198334  54.342109543352855  15.24163046325583  15.474493171771975  -5.129172842704741  49.75995530401632  -1.2152512629895935  18.673419001127915  120.000000
1.2639  0.000000  0.000000  0.000000  -53.46250037620256  12.960913198000908  12.337692072915607  54.41783717870146  15.946692842685172  16.096829293362315  -5.151174516487542  49.91893084395845  -1.848989362859547  18.321409474106634  120.000000
1.32135  0.000000  0.000000  0.000000  -54.09834737463797  13.409760518058459  15.006327073105673  54.44615378170816  16.441428055864275  16.595431646034775  -5.157167757020203  50.119202663800195  -2.0985572421278254  17.99477473164359  120.000000
1.3788  0.000000  0.000000  0.000000  -54.629719510440204  13.639501359252245  17.351614091673678  54.475408312190154  16.740689810228577  16.95111714593894  -5.142201581632452  50.37729125231729  -2.105882638700073  17.70173296295132  120.000000
1.43625  0.000000  0.000000  0.000000  -55.0196885693308  13.69558861031914  19.241273485409426  54.543724184907596  16.869677663149165  17.14655077229861  -5.104275985539273  50.685981045600414  -2.0393626251839603  17.45160590019008  120.000000
1.4937  0.000000  0.000000  0.000000  -55.24104727786588  13.63431215913815  20.560842508078213  54.673427445465514  16.854768658762282  17.17033578793376  -5.0470025948688395  51.01947676868385  -2.053509166527881  17.2525385560177  120.000000
1.55115  0.000000  0.000000  0.000000  -55.278171165648395  13.509585012819908  21.218038475039428  54.87071128601803  16.714534933097596  17.021355507917928  -4.976896545109183  51.34217677595151  -2.2594484681484106  17.110659475763576  120.000000
1.6086  0.000000  0.000000  0.000000  -55.12530493572047  13.357449277767842  21.14913400992048  55.12606084567955  16.455354348383757  16.714253268268422  -4.898848194205052  51.617820255532436  -2.710509702732876  17.029789630967752  120.000000
1.66605  0.000000  0.000000  0.000000  -54.785530198965695  13.183637187318206  20.326585440131993  55.415754441997336  16.072155440033356  16.283117874385276  -4.809870152254818  51.81789698367543  -3.4027499599923905  17.010641062896454  120.000000
1.7235  0.000000  0.000000  0.000000  -54.2706628892789  12.95798015891416  18.768218790295187  55.70545622692918  15.555602235572149  15.777216411573544  -4.697065279086916  51.92575688302641  -4.285447866096889  17.047524348925606  120.000000
1.78095  0.000000  0.000000  0.000000  -53.60439444917119  12.620179117595155  16.54421644380612  55.95489322448785  14.901940165958738  15.250036422096624  -4.54160618481679  51.93486879683875  -5.275824757172881  17.124741250422698  120.000000
1.8384  0.000000  0.000000  0.000000  -52.82818174345471  12.100236104181166  13.775801786764191  56.123976944803005  14.119004856903604  14.74347206074041  -4.3270692736995775  51.84271285923504  -6.2775124291313364  17.217122431118945  120.000000
1.89585  0.000000  0.000000  0.000000  -52.000004869047075  11.343371134782604  10.626131677934717  56.173909723039216  13.228362371993384  14.279599745387909  -4.047868909967437  51.64075985717505  -7.198869730889993  17.29589916501381  120.000000
1.9533  0.000000  0.000000  0.000000  -51.181130663006456  10.333394260127081  7.279995761437901  56.06944505203955  12.265248738888154  13.858013229636441  -3.711328164456731  51.30698483040157  -7.974146788429039  17.33774932876987  120.000000
2.01075  0.000000  0.000000  0.000000  -50.41581145731163  9.100219914724669  3.920181511407592  55.78128334345578  11.27896646063129  13.46005231069892  -3.335808585391892  50.79705198378074  -8.578355195962102  17.33272746353343  120.000000
2.0682  0.000000  0.000000  0.000000  -49.71275680987582  7.70897720775241  0.7043955759411945  55.28989137561546  10.332715362864247  13.053113153305622  -2.9503496939349616  50.040163888418576  -9.03019956108193  17.2836124085047  120.000000
2.1256500000000003  0.000000  0.000000  0.000000  -49.04151086105625  6.24127048216216  -2.2460306928876723  54.58986617279423  9.499511041009917  12.599650231315703  -2.5915837839657034  48.938600329562334  -9.378013652042327  17.19643083321831  120.000000
2.1831  0.000000  0.000000  0.000000  -48.34095984393762  4.7792677938806385  -4.849749927149621  53.696389921666146  8.852646409413191  12.070833739985854  -2.2933158762228594  47.38433164295377  -9.673342734561555  17.0686394642761  120.000000
2.24055  0.000000  0.000000  0.000000  -47.54667787507547  3.3986168919670194  -7.059172847129581  52.64604808136806  8.449024725912821  11.461333431759089  -2.06839893595168  45.29795470633791  -9.93926877166859  16.888951407108088  120.000000
2.298  0.000000  0.000000  0.000000  -46.62365693221049  2.1651782559487898  -8.860160220188085  51.497504727028335  8.304539369598062  10.792721581267926  -1.8925832920292958  42.676698300853616  -10.153147104209859  16.641666720090072  120.000000
2.3554500000000003  0.000000  0.000000  0.000000  -45.590534387769075  1.1222589129339977  -10.276848621344223  50.32123236046481  8.373136247957184  10.111356276298222  -1.7051565884443172  39.616452489774304  -10.252278909034331  16.31129497973701  120.000000
2.4129  0.000000  0.000000  0.000000  -44.51516119390386  0.28304830677461684  -11.370363632967953  49.18217030971447  8.5637370022185  9.473375275380311  -1.4384386303435006  36.292537156430086  -10.146419135063283  15.890570090046415  120.000000
2.47035  0.000000  0.000000  0.000000  -43.46742486842266  -0.36860084162959383  -12.226326326142331  48.14170410681768  8.780795933006893  8.914196936825302  -1.0559461860730266  32.90500391732092  -9.728224363241395  15.396670698946737  120.000000
